<?xml version="1.0" encoding="UTF-8"?>
<svg version="1.1" xmlns="http://www.w3.org/2000/svg" width="512" height="512">
<path d="M0 0 C0.81726563 0.53109375 1.63453125 1.0621875 2.4765625 1.609375 C4.66774823 3.05113238 6.84570224 4.50372705 9 6 C9.74507812 6.51175781 10.49015625 7.02351563 11.2578125 7.55078125 C11.83273437 8.02902344 12.40765625 8.50726562 13 9 C13 9.66 13 10.32 13 11 C13.556875 11.22816406 14.11375 11.45632812 14.6875 11.69140625 C22.32421295 16.01285699 27.83171784 24.07205026 30.33203125 32.30078125 C31.94942815 38.83657806 33.04810321 45.3367225 34 52 C34.25487183 52.9137439 34.25487183 52.9137439 34.51489258 53.84594727 C36.90092475 62.92478428 35.76515269 72.18214365 35.1875 81.4375 C35.08937308 83.17767149 34.99235996 84.91790615 34.89648438 86.65820312 C34.41935703 95.12004609 33.8685001 103.56776247 33 112 C33.85940186 112.1451001 34.71880371 112.2902002 35.60424805 112.43969727 C81.26164847 120.26311005 81.26164847 120.26311005 100 132 C102.1387261 135.20808915 102.47730962 136.27698497 102 140 C98.71759595 142.18826937 97.32072538 142.31084375 93.50390625 141.73046875 C90.43193895 140.8342786 87.92848036 139.42090924 85.125 137.875 C68.56931468 128.96040021 48.35477632 126.13706899 30 123 C30 125.64 30 128.28 30 131 C30.53778076 131.1451001 31.07556152 131.2902002 31.62963867 131.43969727 C46.33273091 135.466459 60.79655069 140.02814654 72 151 C72 151.66 72 152.32 72 153 C72.55300781 153.25265625 73.10601562 153.5053125 73.67578125 153.765625 C83.79051399 159.13748306 91.34437491 167.64179106 96 178 C97.32350724 184.67701966 96.94434539 191.31244686 93.37890625 197.23828125 C90.659602 200.71251983 87.5224277 203.36562937 84 206 C83.20722656 206.61101562 82.41445313 207.22203125 81.59765625 207.8515625 C67.26677599 217.98015456 48.73605609 219.06196034 31.796875 216.421875 C25.84260906 215.23102181 20.48548454 213.56767362 15 211 C13.33944746 210.63743394 11.6731528 210.29907959 10 210 C10.00444122 211.06472031 10.00888245 212.12944061 10.01345825 213.22642517 C10.05425538 223.33110734 10.08410369 233.43577248 10.10362434 243.54051876 C10.11399791 248.73367217 10.12803756 253.92675833 10.15087891 259.11987305 C10.1728392 264.14494537 10.18461675 269.1699536 10.18975449 274.19507027 C10.19340912 276.09850636 10.2005436 278.00193952 10.21146011 279.90534782 C10.36878427 308.51163464 7.76507683 336.44637595 -13 358 C-18.33761212 363.25004841 -23.68596359 366.86241339 -30.5625 369.8125 C-31.45710937 370.19921875 -32.35171875 370.5859375 -33.2734375 370.984375 C-42.8365422 374.80697149 -52.43797022 375.57534324 -62.65429688 375.84570312 C-65.05857817 375.94590486 -65.05857817 375.94590486 -67.59399414 376.56323242 C-73.86144192 377.70097611 -81.83605515 373.17845383 -86.96582031 369.64648438 C-105.85596434 355.11560436 -115.47293697 335.50943306 -118.6640625 311.86328125 C-119.05325359 307.38758371 -119.3648182 302.92568376 -119.5625 298.4375 C-119.62945068 296.95092896 -119.62945068 296.95092896 -119.69775391 295.43432617 C-119.97917694 287.94836485 -120.01081999 280.48217173 -119.95703125 272.9921875 C-119.95033417 272.00937805 -119.94363708 271.0265686 -119.93673706 270.01397705 C-119.92989899 269.01420837 -119.92306091 268.0144397 -119.91601562 266.984375 C-119.90212606 264.92708479 -119.8884559 262.86979309 -119.875 260.8125 C-119.86815186 259.78785645 -119.86130371 258.76321289 -119.85424805 257.70751953 C-119.78211527 244.04535606 -120.12931553 230.70255023 -122.02099609 217.15356445 C-124.675319 197.61300031 -124.675319 197.61300031 -120.63891602 192.16186523 C-115.67160526 188.64042446 -108.782183 189.60122876 -103 190 C-97.67061906 191.86995822 -94.36904759 194.70056607 -91.48828125 199.5390625 C-89.63211735 203.85549614 -88.99414205 207.92944337 -88.375 212.5625 C-88.24947754 213.44784424 -88.12395508 214.33318848 -87.99462891 215.24536133 C-87.16940619 221.23830964 -86.55959634 227.22265677 -86.18359375 233.26171875 C-86.02039083 235.695873 -85.75549922 238.08233471 -85.4375 240.5 C-85.03588586 243.90860281 -84.99216934 247.21398387 -85.046875 250.64453125 C-85.07020366 259.19239164 -84.48084782 267.67054821 -83.8125 276.1875 C-83.74753326 277.01683044 -83.68256653 277.84616089 -83.6156311 278.70062256 C-81.84026448 306.46565525 -81.84026448 306.46565525 -72.13671875 332.09375 C-71 334 -71 334 -71 336 C-70.2265625 336.37125 -70.2265625 336.37125 -69.4375 336.75 C-67 338 -67 338 -63.75 340.125 C-59.85532522 342.3292202 -56.39069725 342.72220815 -52 342 C-51.30003906 341.8865625 -50.60007812 341.773125 -49.87890625 341.65625 C-41.03322574 339.00727616 -36.23920813 329.6005067 -32 322 C-28.07851883 313.92457873 -27.22775316 305.41586188 -26.39453125 296.58984375 C-26 293 -26 293 -25 290 C-24.83571825 287.85073779 -24.72725108 285.69705903 -24.6484375 283.54296875 C-24.62478622 282.89686142 -24.60113495 282.25075409 -24.57676697 281.58506775 C-24.50244032 279.45270829 -24.43735206 277.32024202 -24.375 275.1875 C-24.35287445 274.45037781 -24.3307489 273.71325562 -24.30795288 272.95379639 C-23.5319156 245.92759691 -25.34749343 218.96448133 -27 192 C-28.09417236 191.70343506 -29.18834473 191.40687012 -30.31567383 191.10131836 C-33.97057018 190.00879716 -36.52497619 188.6603225 -39.6875 186.5625 C-40.59886719 185.96566406 -41.51023437 185.36882812 -42.44921875 184.75390625 C-43.71185547 183.88572266 -43.71185547 183.88572266 -45 183 C-45.76957031 182.47277344 -46.53914062 181.94554687 -47.33203125 181.40234375 C-47.88246094 180.93957031 -48.43289063 180.47679687 -49 180 C-49 179.34 -49 178.68 -49 178 C-53.05358082 176.24710018 -55.42362429 175.43069021 -59.71484375 176.98046875 C-72.51381438 180.95256308 -88.10446538 177.11798892 -101 175 C-102.21558594 174.81050781 -103.43117188 174.62101563 -104.68359375 174.42578125 C-120.68279289 171.87813808 -120.68279289 171.87813808 -125 169 C-127.38677076 168.70547416 -129.78626094 168.5071783 -132.1875 168.375 C-133.45980469 168.30023438 -134.73210937 168.22546875 -136.04296875 168.1484375 C-137.50669922 168.07496094 -137.50669922 168.07496094 -139 168 C-139.21595215 181.79694273 -138.57000622 195.39777145 -136.5 209.046875 C-135.15983078 219.64258789 -134.79880208 230.27156603 -134.55444336 240.93804932 C-134.49850054 243.3778962 -134.43818287 245.81760461 -134.37695312 248.25732422 C-134.1781582 256.24474356 -133.99412427 264.23249323 -133.81262207 272.22032166 C-133.73025967 275.81972329 -133.6453835 279.41906382 -133.56030273 283.0184021 C-133.50145521 285.56209837 -133.44689117 288.1058617 -133.39257812 290.6496582 C-133.20024623 299.13330476 -132.85883937 307.55127189 -132 316 C-130.35 316.33 -128.7 316.66 -127 317 C-127.03222656 318.10859375 -127.06445312 319.2171875 -127.09765625 320.359375 C-127.09896811 326.31523343 -125.98111983 332.07618548 -124.97851562 337.9296875 C-124.83994141 338.78304688 -124.70136719 339.63640625 -124.55859375 340.515625 C-124.42767334 341.28165039 -124.29675293 342.04767578 -124.16186523 342.83691406 C-123.99019867 345.13098009 -124.32042746 346.81519445 -125 349 C-125.66 349 -126.32 349 -127 349 C-126.75765625 349.8765625 -126.5153125 350.753125 -126.265625 351.65625 C-123.72238436 361.28143767 -121.90641563 370.90714421 -120.39550781 380.74804688 C-118.63935574 391.97711146 -114.60633939 401.21412739 -109 411 C-108.36449219 412.11246094 -107.72898437 413.22492188 -107.07421875 414.37109375 C-106.38282901 415.5807386 -105.69142249 416.79037387 -105 418 C-104.31248262 419.20311507 -103.62498233 420.4062399 -102.9375 421.609375 C-101.7522429 423.68357493 -100.56518351 425.75674793 -99.375 427.828125 C-98.92125 428.62734375 -98.4675 429.4265625 -98 430.25 C-97.608125 430.93578125 -97.21625 431.6215625 -96.8125 432.328125 C-96 434 -96 434 -96 436 C-95.20335937 436.35578125 -95.20335937 436.35578125 -94.390625 436.71875 C-91.30257405 438.37378384 -88.5471528 440.40548128 -85.75 442.5 C-85.19570312 442.90347656 -84.64140625 443.30695313 -84.0703125 443.72265625 C-82.67430835 444.76450171 -81.33197608 445.87745412 -80 447 C-80 447.66 -80 448.32 -80 449 C-72.35109677 453.28338581 -65.12721215 453.2571558 -56.5625 453.125 C-54.8928418 453.11146484 -54.8928418 453.11146484 -53.18945312 453.09765625 C-50.45940977 453.0742224 -47.7298199 453.041414 -45 453 C-45 452.34 -45 451.68 -45 451 C-44.37351562 450.91363281 -43.74703125 450.82726562 -43.1015625 450.73828125 C-40.63442943 450.31412115 -38.35496665 449.85438017 -36 449 C-34.61141128 446.57114212 -34.61141128 446.57114212 -34 444 C-32.125 442.625 -32.125 442.625 -30 442 C-27.75 442.375 -27.75 442.375 -26 443 C-26 443.33 -26 443.66 -26 444 C-24.35 444.33 -22.7 444.66 -21 445 C-20.77183594 444.41347656 -20.54367187 443.82695312 -20.30859375 443.22265625 C-18.65041606 440.40622908 -16.78494557 439.22447969 -14.0625 437.4375 C-6.01743622 432.11756828 -1.83773249 425.37869551 0.51708984 415.92382812 C1.21213638 412.50278553 1.75732429 409.0841799 2.26171875 405.62890625 C3.01221386 401.93996468 4.21579794 399.29286913 6 396 C7.02115268 393.46964372 7.98207662 390.92294504 8.9375 388.3671875 C10.02636682 385.94125628 11.32975077 384.05934137 13 382 C14.65 382.33 16.3 382.66 18 383 C17.98839844 382.14019531 17.97679687 381.28039062 17.96484375 380.39453125 C17.90228271 372.19903465 18.29400474 364.160422 19 356 C19.90767371 344.58416848 20.12984015 333.27375928 20.02905273 321.82592773 C19.96335152 313.39464034 20.14808222 305.026073 20.73266602 296.61376953 C21.11321526 290.39156696 20.71896735 284.34119015 20.26000977 278.12866211 C19.8048597 271.45690153 19.7391566 264.7770018 19.70483398 258.09179688 C19.69322431 256.52334639 19.67263366 254.95493808 19.64331055 253.38671875 C19.46595663 243.82744145 19.73007694 235.80769662 24 227 C24.66 227 25.32 227 26 227 C26 226.34 26 225.68 26 225 C30.91219071 221.55101504 33.89444484 220.43761837 39.85546875 221.453125 C44.87325355 222.73270582 48.29661665 224.53941747 51 229 C51.35626465 229.53375244 51.7125293 230.06750488 52.07958984 230.61743164 C53.43091542 234.11546513 53.13125375 237.50059205 52.9765625 241.18359375 C52.95153656 241.99377457 52.92651062 242.80395538 52.90072632 243.63868713 C52.81875899 246.23873129 52.72261111 248.83800025 52.625 251.4375 C51.80552163 275.07717454 52.08661266 298.55508249 52.92712402 322.19464111 C53.0974012 326.99705659 53.26350438 331.7996165 53.42797852 336.60223389 C53.51525023 339.1410726 53.60418039 341.67985506 53.69506836 344.21856689 C54.04194765 354.20530547 54.12153084 363.83497494 52.75 373.75 C52.61722656 374.71574951 52.48445312 375.68149902 52.34765625 376.67651367 C51.26167777 384.10712217 49.54786401 390.92780394 47 398 C46.80140381 398.62567871 46.60280762 399.25135742 46.39819336 399.89599609 C44.20787071 406.77763146 41.40418334 413.36560142 38.5625 420 C38.08490234 421.1240625 37.60730469 422.248125 37.11523438 423.40625 C36.17958218 425.60355666 35.23810091 427.79839202 34.2902832 429.99047852 C33.49445165 431.84671608 32.71574506 433.71053672 31.96557617 435.58569336 C29.80961564 440.84344445 27.18756127 444.54858025 23.1875 448.5625 C22.10979294 449.68274385 21.03296492 450.80383404 19.95703125 451.92578125 C19.44350098 452.45510254 18.9299707 452.98442383 18.40087891 453.52978516 C16.6456296 455.37190982 15.00706993 457.29852736 13.375 459.25 C7.00396169 466.5443772 0.24574921 472.26921172 -8.40234375 476.66015625 C-11.36656555 478.18907065 -14.10202747 479.94775174 -16.85546875 481.82421875 C-35.02546214 491.78627342 -58.55100679 490.72062942 -78 486 C-79.54147368 485.70731512 -81.08311315 485.41550042 -82.625 485.125 C-93.02615623 482.77635182 -103.6331409 478.57745641 -111.375 471.1875 C-114.57040489 468.18286555 -117.67031879 465.43977206 -121.3125 463 C-126.02202809 459.5418881 -128.35423536 455.12449868 -131 450 C-131.59296875 448.85660156 -132.1859375 447.71320313 -132.796875 446.53515625 C-134.52357783 443.15627191 -136.19953802 439.75421208 -137.85986328 436.34228516 C-138.65434634 434.71010733 -139.45248043 433.0797038 -140.25341797 431.45068359 C-141.57336649 428.76288718 -142.88176495 426.06972657 -144.1875 423.375 C-144.59129883 422.55346436 -144.99509766 421.73192871 -145.41113281 420.88549805 C-150.86899703 409.52015405 -154.57020468 397.82782084 -157.25805664 385.52319336 C-157.68714868 383.56410401 -158.13258118 381.60925485 -158.58007812 379.65429688 C-160.31203693 371.8818885 -161.59603571 364.18952421 -162.57739258 356.29272461 C-163.06644005 352.48233567 -163.74040478 348.7649502 -164.5 345 C-167.22562748 330.98593307 -169.04988574 316.80604265 -168.99609375 302.51171875 C-168.97384163 295.33485518 -169.19795643 288.17226796 -169.4375 281 C-169.48453776 279.58886719 -169.53157552 278.17773438 -169.57861328 276.76660156 C-169.65058926 274.6082402 -169.72276595 272.44988746 -169.79589844 270.29156494 C-169.94807297 265.75207952 -170.07361669 261.21262268 -170.18359375 256.671875 C-170.49375979 244.94464462 -171.18564498 233.40326571 -172.5625 221.75 C-175.08925872 199.97568301 -173.86875439 178.61109037 -172.18359375 156.82714844 C-172.03606708 154.5553947 -172 152.27653886 -172 150 C-173.37068264 148.56738916 -173.37068264 148.56738916 -175.28125 147.4921875 C-175.95800781 147.06292969 -176.63476562 146.63367188 -177.33203125 146.19140625 C-178.40517578 145.53978516 -178.40517578 145.53978516 -179.5 144.875 C-182.04724486 143.30075678 -184.5254341 141.69095337 -187 140 C-187 139.34 -187 138.68 -187 138 C-187.556875 137.79375 -188.11375 137.5875 -188.6875 137.375 C-195.03876991 133.59856924 -197.91645471 127.19417249 -199.6953125 120.30859375 C-201.45710947 111.75607302 -201.76436501 103.00183658 -196.89453125 95.41796875 C-193.97249563 91.55699062 -190.5848917 89.63952163 -186.25 87.625 C-185.54423828 87.28339844 -184.83847656 86.94179687 -184.11132812 86.58984375 C-179.03545282 84.23135623 -174.6479958 83 -169 83 C-168.34 77.39 -167.68 71.78 -167 66 C-167.99 65.34 -168.98 64.68 -170 64 C-170.1875 60.875 -170.1875 60.875 -170 58 C-168.39125 57.55333984 -168.39125 57.55333984 -166.75 57.09765625 C-163.31400548 55.61903789 -162.23002885 54.11569296 -160.8125 50.68359375 C-160.18697682 48.94242101 -159.58367625 47.19314342 -159 45.4375 C-156.2105839 37.77616786 -153.25240559 31.32982212 -148 25 C-146.948125 23.6078125 -146.948125 23.6078125 -145.875 22.1875 C-143.69631202 19.64569736 -141.46312154 17.26866457 -139 15 C-138.34 15 -137.68 15 -137 15 C-136.74863281 14.26394531 -136.49726563 13.52789062 -136.23828125 12.76953125 C-130.83183967 0.67752153 -114.84127509 -7.15468602 -102.99243164 -11.78442383 C-71.18723569 -22.55648488 -28.01759831 -18.43018095 0 0 Z M-62 22 C-60 20 -60 20 -58 18 C-68.9457321 18.70227042 -78.80037429 21.34443328 -88.9375 25.4375 C-89.65945557 25.7257666 -90.38141113 26.0140332 -91.12524414 26.31103516 C-97.66756089 29.0429244 -102.02430485 32.98824909 -107 38 C-108.28874033 39.1922042 -109.5835193 40.37789918 -110.8828125 41.55859375 C-111.57503906 42.19216797 -112.26726562 42.82574219 -112.98046875 43.47851562 C-114.41248253 44.78663022 -115.8500257 46.08871678 -117.29296875 47.38476562 C-121.1682119 50.95216236 -124.08702517 53.96546547 -126 59 C-126 59.66 -126 60.32 -126 61 C-126.66 61 -127.32 61 -128 61 C-128 61.99 -128 62.98 -128 64 C-127.43418213 64.13462646 -126.86836426 64.26925293 -126.28540039 64.40795898 C-111.44090219 67.98937072 -97.19451536 72.5508169 -82.90380859 77.91699219 C-80.2206526 78.91770515 -77.52985969 79.89123843 -74.83203125 80.8515625 C-63.97943755 84.73162418 -53.46966999 89.18420197 -43 94 C-42.8125 96.875 -42.8125 96.875 -43 100 C-46 102 -46 102 -48.484375 101.89453125 C-53.58490074 100.59673081 -58.37236636 98.64922524 -63.25 96.6875 C-64.23613281 96.29626953 -65.22226563 95.90503906 -66.23828125 95.50195312 C-69.16136271 94.34080812 -72.08104469 93.17147373 -75 92 C-77.58101991 90.96768504 -80.16222277 89.9358311 -82.74365234 88.90454102 C-84.72093784 88.11187246 -86.69474929 87.31054928 -88.66796875 86.5078125 C-103.30701829 80.75617705 -118.56070085 76.92922827 -134 74 C-134.87840996 77.09720845 -134.99435406 78.90645403 -134 82 C-133.04287109 82.07347656 -133.04287109 82.07347656 -132.06640625 82.1484375 C-131.24011719 82.22320312 -130.41382813 82.29796875 -129.5625 82.375 C-128.73878906 82.44460937 -127.91507812 82.51421875 -127.06640625 82.5859375 C-126.38449219 82.72257812 -125.70257813 82.85921875 -125 83 C-124.67 83.66 -124.34 84.32 -124 85 C-122.01970602 85.60978565 -120.01337497 86.13538381 -118 86.625 C-111.24126445 88.44253318 -105.24512658 91.04931633 -99.0390625 94.27001953 C-95.58309249 96.01046597 -92.66778569 97.19269207 -88.796875 97.5859375 C-85.15007534 97.98363376 -83.23566364 98.62384317 -80.125 100.4375 C-76.67937273 102.29729576 -73.87367653 103.3346282 -70 103.875 C-64.90000749 104.72367682 -61.78223682 106.97570156 -57.71484375 110.06640625 C-54.68090656 112.22726799 -51.55522303 113.9104859 -48.25 115.625 C-39.21957263 120.4263892 -35.15587144 124.52976199 -31 134 C-29.64068359 133.58427734 -29.64068359 133.58427734 -28.25390625 133.16015625 C-17.08356304 129.83860446 -17.08356304 129.83860446 -12 129.4375 C-8.11380169 129.11123335 -5.25802764 128.28061935 -2 126 C-1.03093173 123.41585574 -1.03093173 123.41585574 -1 121 C-1.67546875 121.02320313 -2.3509375 121.04640625 -3.046875 121.0703125 C-3.93890625 121.08835937 -4.8309375 121.10640625 -5.75 121.125 C-6.63171875 121.14820313 -7.5134375 121.17140625 -8.421875 121.1953125 C-11.15577048 120.98819921 -12.72406132 120.50871048 -15 119 C-15.875 116.5625 -15.875 116.5625 -16 114 C-15.01 112.515 -15.01 112.515 -14 111 C-12.0546875 110.70703125 -12.0546875 110.70703125 -9.875 110.8125 C-8.59625 110.874375 -7.3175 110.93625 -6 111 C-5.71125 110.030625 -5.4225 109.06125 -5.125 108.0625 C-4 105 -4 105 -2 104 C-3.875 108.75 -3.875 108.75 -5 111 C-3.68 111 -2.36 111 -1 111 C-0.75505058 107.95637314 -0.51954636 104.91254576 -0.296875 101.8671875 C-0.10518484 99.3701709 0.11178032 96.87490678 0.359375 94.3828125 C1.92281289 76.47772617 1.7964607 53.59551502 -8 38 C-10.72188369 34.81340447 -13.10723983 32.58593933 -17 31 C-17 30.34 -17 29.68 -17 29 C-17.61875 28.9175 -18.2375 28.835 -18.875 28.75 C-21.69640174 27.75421115 -21.71927958 26.63677734 -23 24 C-29.92631493 17.56930689 -40.13220177 16.34575769 -49.34375 16.5625 C-54.04191641 17.33631564 -57.96732075 19.55065034 -62 22 Z M-131 318 C-130 321 -130 321 -130 321 Z M11 388 C10.67 388.66 10.34 389.32 10 390 C10.99 390 11.98 390 13 390 C13 389.34 13 388.68 13 388 C12.34 388 11.68 388 11 388 Z M13 390 C13 390.66 13 391.32 13 392 C13.66 391.67 14.32 391.34 15 391 C14.34 390.67 13.68 390.34 13 390 Z M-33 448 C-33.33 448.66 -33.66 449.32 -34 450 C-29.74268432 450.40749675 -29.74268432 450.40749675 -26.125 448.5 C-25.75375 448.005 -25.3825 447.51 -25 447 C-28.6328668 445.7890444 -29.6624065 446.33120325 -33 448 Z " fill="#070707" transform="translate(315,21)"/>
<path d="M0 0 C0.66 0 1.32 0 2 0 C2 0.66 2 1.32 2 2 C5.62263634 3.49167379 9.27989658 4.77370552 13 6 C12.98839844 7.22332031 12.97679687 8.44664062 12.96484375 9.70703125 C12.68892808 31.50467708 12.68892808 31.50467708 15.4985199 53.0534668 C17.37966926 64.10648573 17.15235748 75.65759246 17.22979546 86.84780884 C17.24668848 89.20809499 17.26992811 91.5682507 17.29469299 93.9284668 C17.36415969 100.6272082 17.42495176 107.32600149 17.47680664 114.02490234 C17.33788099 149.23950263 17.33788099 149.23950263 22.5625 183.9375 C22.78357422 184.91783203 23.00464844 185.89816406 23.23242188 186.90820312 C23.92468223 191.29353458 23.92468223 191.29353458 26 195 C26.54498143 198.15997634 26.96583111 201.33117427 27.40234375 204.5078125 C27.92871083 207.99366404 27.92871083 207.99366404 28.96484375 211.26953125 C30.27606274 215.99486759 30.95580205 220.71081488 31.625 225.5625 C31.82609375 226.94211914 31.82609375 226.94211914 32.03125 228.34960938 C32.67762878 232.93692003 33.17007848 237.35376528 33 242 C33.66 242 34.32 242 35 242 C35.66 244.31 36.32 246.62 37 249 C37.66 249 38.32 249 39 249 C39.6509259 250.24735567 40.29551669 251.49801832 40.9375 252.75 C41.29714844 253.44609375 41.65679687 254.1421875 42.02734375 254.859375 C43 257 43 257 43.50390625 259.203125 C43.74947266 260.09257813 43.74947266 260.09257813 44 261 C44.66 261.33 45.32 261.66 46 262 C46.99945455 263.77908772 47.92528409 265.59986282 48.8125 267.4375 C49.33972656 268.51515625 49.86695313 269.5928125 50.41015625 270.703125 C51.41947103 272.79615122 52.42744265 274.88982611 53.43359375 276.984375 C53.86800781 277.87640625 54.30242187 278.7684375 54.75 279.6875 C55.33007812 280.89986328 55.33007812 280.89986328 55.921875 282.13671875 C56.8657378 284.16211792 56.8657378 284.16211792 59 285 C59.495 286.485 59.495 286.485 60 288 C63.00007271 289.70855022 63.00007271 289.70855022 66 291 C66 291.66 66 292.32 66 293 C67.0209375 293.309375 67.0209375 293.309375 68.0625 293.625 C70.76172647 294.88846771 72.02725011 295.87329167 74.125 297.875 C82.30856995 305.07302174 92.54120594 305.7784056 103 306 C103.88349121 306.02578125 104.76698242 306.0515625 105.67724609 306.078125 C108.61817472 306.1574354 111.55831043 306.20832546 114.5 306.25 C115.44399658 306.2715918 116.38799316 306.29318359 117.3605957 306.31542969 C122.77671609 306.34058719 126.23601837 305.8192138 131 303 C132.67494105 302.47862737 134.36274503 301.99619342 136.0625 301.5625 C140.17181528 300.40076876 142.80122177 298.89889277 146 296 C146.66 296 147.32 296 148 296 C148.2165625 295.42765625 148.433125 294.8553125 148.65625 294.265625 C150.44414884 291.25114441 152.65234274 289.77333542 155.5 287.75 C156.4796875 287.04359375 157.459375 286.3371875 158.46875 285.609375 C161 284 161 284 163 284 C163.0825 283.46375 163.165 282.9275 163.25 282.375 C164.05058285 279.83982098 165.3192735 278.11200348 166.8359375 275.95703125 C168.31835607 273.46477721 169.31249653 270.88488783 170.375 268.1875 C172.81638834 262.12924004 175.74169659 256.0416182 180.5859375 251.51953125 C182.30102661 249.67652113 182.79342502 248.15571958 183.5 245.75 C184.3932317 242.85518102 185.33931771 240.22635561 186.5625 237.4375 C189.27437108 230.9525909 190.32894905 224.56341612 190.84716797 217.61425781 C190.91072605 216.8114463 190.97428413 216.0086348 191.03976822 215.18149567 C191.24369231 212.52274028 191.43261349 209.86329128 191.6171875 207.203125 C191.71587442 205.80653027 191.71587442 205.80653027 191.81655502 204.3817215 C193.4072673 181.26970286 193.31672588 158.18047401 193.14770508 135.02636719 C193.08690061 126.25221674 193.05450604 117.47791307 193.02193832 108.70362091 C193.00813313 105.67960784 192.9865777 102.65573089 192.96365356 99.6317749 C192.95363818 97.79065027 192.94377261 95.94952481 192.93408203 94.10839844 C192.92577362 93.28474792 192.91746521 92.46109741 192.90890503 91.61248779 C192.85862547 78.50149405 192.85862547 78.50149405 197 74 C201.75 74.75 201.75 74.75 204 77 C204.23377991 79.42604065 204.23377991 79.42604065 204.21118164 82.52172852 C204.20780289 83.68217178 204.20442413 84.84261505 204.20094299 86.03822327 C204.18748337 87.30564865 204.17402374 88.57307404 204.16015625 89.87890625 C204.15219918 91.88903986 204.1442485 93.89917352 204.13662624 95.90930843 C204.123462 98.74657768 204.1013086 101.58374923 204.07904053 104.42095947 C204.03103734 110.63604386 203.99705521 116.8511868 203.97265625 123.06640625 C203.96974516 123.74759081 203.96683407 124.42877537 203.96383476 125.13060188 C203.92795595 135.08211394 204.15818297 144.99724725 204.61627197 154.9380188 C205.09732028 165.51968754 205.25605199 176.0948486 205.29516602 186.68676758 C205.30678918 188.86652056 205.32739958 191.0462429 205.35668945 193.22583008 C205.57171063 209.38365073 204.27690313 223.65760525 199 239 C198.76539063 239.75023437 198.53078125 240.50046875 198.2890625 241.2734375 C196.86458898 245.78147722 195.14496712 249.91342854 192.97265625 254.109375 C190.67053215 258.58418651 188.91942864 263.12026809 187.5 267.9375 C184.83930907 276.95352005 184.83930907 276.95352005 183 281 C180.96484375 281.60546875 180.96484375 281.60546875 179 282 C177.93283296 283.79932579 177.93283296 283.79932579 177 286 C175 288.75 175 288.75 173 291 C172.34 291 171.68 291 171 291 C170.938125 291.5775 170.87625 292.155 170.8125 292.75 C169.67366804 295.9036885 167.63678864 296.96248151 165 299 C164.29875 299.928125 163.5975 300.85625 162.875 301.8125 C159.86952564 305.55055874 156.02106573 307.74495761 151.953125 310.203125 C150.03523 311.37009815 148.1465596 312.5870486 146.296875 313.859375 C127.58394537 326.66295843 105.04298025 325.23399402 83.57519531 321.53417969 C78.33430065 320.44704682 73.71744883 318.53049653 69 316 C67.3603125 315.319375 67.3603125 315.319375 65.6875 314.625 C62.48716697 312.68991491 60.22597728 310.32651785 57.65625 307.6328125 C55.63862498 305.64373878 53.46111443 304.38832096 51 303 C45.3692882 299.0465215 41.96950109 294.21278597 39 288 C39 287.01 39 286.02 39 285 C38.34 285 37.68 285 37 285 C36.85304687 284.39414062 36.70609375 283.78828125 36.5546875 283.1640625 C34.98758688 277.309951 32.76482598 272.72442785 29.54296875 267.6171875 C26.80656838 262.97569827 24.92393398 258.02055154 23 253 C22.54238281 251.83726562 22.08476562 250.67453125 21.61328125 249.4765625 C19.01726291 242.61831347 17.18644262 236.35600868 17 229 C16.34 229 15.68 229 15 229 C11.55576058 209.55555192 8.3495094 190.07573035 5.39453125 170.55078125 C5.1234379 168.7980688 4.82111301 167.04999123 4.49291992 165.30706787 C3.95362581 161.68886916 3.80395649 158.19349667 3.71875 154.53613281 C3.70070312 153.81314499 3.68265625 153.09015717 3.6640625 152.34526062 C3.60551774 149.96462432 3.5528492 147.58389393 3.5 145.203125 C3.45943483 143.52845176 3.41841121 141.85378956 3.37695312 140.17913818 C3.26858882 135.76714891 3.16481266 131.35506548 3.0625 126.94293213 C2.8996424 119.92590075 2.73246714 112.90898286 2.56030273 105.89217377 C2.50191185 103.46993462 2.44708216 101.04763442 2.39257812 98.62530518 C2.20892364 90.80781989 1.94338929 82.9991375 1.53442383 75.18994141 C1.47904827 74.07674467 1.47904827 74.07674467 1.42255402 72.94105911 C1.20543545 69.06572208 0.79081617 65.35944603 -0.05078125 61.5703125 C-1.54890255 54.27305686 -1.26029903 46.85750126 -1.20581055 39.44140625 C-1.18768506 36.90093749 -1.1853008 34.36083897 -1.18554688 31.8203125 C-1.16193465 21.18242366 -0.74543475 10.6110792 0 0 Z " fill="#BDBDBD" transform="translate(153,177)"/>
<path d="M0 0 C1.32 0.66 2.64 1.32 4 2 C4 2.66 4 3.32 4 4 C5.258125 4.268125 6.51625 4.53625 7.8125 4.8125 C11.14099082 5.5218505 12.83294795 6.34955928 15 9 C15.36190605 10.86777687 15.36190605 10.86777687 15.34298706 13.00479126 C15.34303238 13.81734879 15.3430777 14.62990631 15.34312439 15.46708679 C15.31998924 16.79943108 15.31998924 16.79943108 15.29638672 18.15869141 C15.29189011 19.09742599 15.28739349 20.03616058 15.28276062 21.00334167 C15.26362601 24.11974301 15.22227654 27.23539966 15.1796875 30.3515625 C15.15925102 32.52614515 15.13974372 34.70073672 15.12112427 36.87533569 C15.07850838 41.44700515 15.02500523 46.01838553 14.96386719 50.58984375 C14.88688737 56.40489684 14.83575547 62.21981818 14.7929821 68.03521156 C14.75703788 72.53623849 14.70731107 77.03703654 14.6536293 81.53788376 C14.62963546 83.67850955 14.60968106 85.81918504 14.59408188 87.95988846 C14.49264617 100.63872694 13.63775868 112.59256761 11 125 C10.83587616 125.94106598 10.67175232 126.88213196 10.50265503 127.85171509 C9.61788071 132.67260946 8.18982502 135.34108307 5 139 C4.36852319 140.25748629 3.76659234 141.53004658 3.1875 142.8125 C0.94515446 147.50266497 -2.18605039 151.46786932 -6 155 C-6.66 155 -7.32 155 -8 155 C-8.2475 155.598125 -8.495 156.19625 -8.75 156.8125 C-10.84563311 160.47985794 -14.16275805 162.39083402 -18 164 C-18.99 164 -19.98 164 -21 164 C-21 164.66 -21 165.32 -21 166 C-28.41654907 169.54583833 -34.94694944 170.71633259 -43.125 170.9375 C-44.15753906 170.99228516 -45.19007813 171.04707031 -46.25390625 171.10351562 C-54.01260013 171.38520069 -59.48304888 170.4179039 -66 165.9375 C-66.99 164.9784375 -66.99 164.9784375 -68 164 C-68 163.34 -68 162.68 -68 162 C-68.7425 161.73960937 -69.485 161.47921875 -70.25 161.2109375 C-76.77655479 158.33702843 -80.90860173 152.93442061 -83.6875 146.5 C-86.19397299 139.82451133 -88.39044451 133.00483701 -90.36523438 126.15332031 C-90.81497878 124.62764891 -91.29904867 123.11190509 -91.80664062 121.60449219 C-94.34395671 113.54566439 -94.38304796 105.73125501 -94.25 97.375 C-94.23736481 95.91724333 -94.22557548 94.4594791 -94.21459961 93.00170898 C-94.06426291 76.98404717 -93.76240432 60.93083756 -92 45 C-92.66 45 -93.32 45 -94 45 C-98.73576489 11.20729467 -98.73576489 11.20729467 -96 3 C-90.66597768 2.51508888 -90.66597768 2.51508888 -87.90234375 4.52734375 C-85.42274164 7.75031733 -84.90257763 10.89192287 -84.3125 14.8125 C-84.19583984 15.49892578 -84.07917969 16.18535156 -83.95898438 16.89257812 C-83.61846838 18.92605502 -83.30171949 20.96039434 -83 23 C-82.83266357 24.03552002 -82.66532715 25.07104004 -82.49291992 26.13793945 C-81.90974886 30.70712372 -81.68541094 35.23621858 -81.5 39.8359375 C-81.41672312 41.72265874 -81.33338812 43.60937742 -81.25 45.49609375 C-81.12351225 48.45225091 -80.99860077 51.40846682 -80.875 54.36474609 C-80.75396556 57.23033107 -80.62726452 60.0956235 -80.5 62.9609375 C-80.44682617 64.2983046 -80.44682617 64.2983046 -80.39257812 65.66268921 C-80.59645234 69.65487379 -80.59645234 69.65487379 -79 73 C-78.78214488 75.0981793 -78.62794814 77.20301865 -78.5 79.30859375 C-78.37625 81.26635742 -78.37625 81.26635742 -78.25 83.26367188 C-78.16638401 84.65493096 -78.08305257 86.04620717 -78 87.4375 C-77.26481085 103.9209898 -77.26481085 103.9209898 -74 120 C-73.89171875 121.05574219 -73.7834375 122.11148438 -73.671875 123.19921875 C-72.88054768 127.67573898 -71.31301883 131.11273176 -69.25 135.125 C-68.91484375 135.81464844 -68.5796875 136.50429688 -68.234375 137.21484375 C-65.13657406 143.35177516 -61.15057679 147.47900485 -55.375 151.25 C-54.61960938 151.75015625 -53.86421875 152.2503125 -53.0859375 152.765625 C-46.59422661 156.60716178 -38.88587551 155.38564552 -31.8125 153.875 C-21.50835561 151.02884247 -15.99733153 143.07002196 -10.3125 134.4375 C-9.879375 133.633125 -9.44625 132.82875 -9 132 C-8.69578125 131.46503906 -8.3915625 130.93007813 -8.078125 130.37890625 C-0.38408685 116.14493567 0.11408588 101.42132252 0.5625 85.625 C0.58334656 84.91824127 0.60419312 84.21148254 0.62567139 83.48330688 C1.07177937 68.24658981 1.32239673 53.10499662 0.3581543 37.88623047 C-0.36333681 25.28418581 -0.08164546 12.61736361 0 0 Z " fill="#BEBEBE" transform="translate(300,217)"/>
<path d="M0 0 C3.56287373 0.81051156 6.86988558 1.92116729 10.296875 3.1875 C15.25855358 5.01267596 15.25855358 5.01267596 20.2578125 6.73046875 C23.84912141 7.93526518 27.38292469 9.27646104 30.921875 10.625 C37.65868834 13.17478367 44.43932358 15.54207625 51.296875 17.75 C51.296875 18.41 51.296875 19.07 51.296875 19.75 C51.80605469 19.86472656 52.31523437 19.97945312 52.83984375 20.09765625 C56.8039267 21.15012343 60.66362926 22.52582864 64.54492188 23.84570312 C68.7653491 25.26961626 73.00788256 26.54323112 77.296875 27.75 C78.781875 28.245 78.781875 28.245 80.296875 28.75 C79.55026788 34.47398793 78.46810359 40.09853777 77.296875 45.75 C77.956875 45.75 78.616875 45.75 79.296875 45.75 C79.5134375 46.8328125 79.5134375 46.8328125 79.734375 47.9375 C82.12276446 52.23660103 85.98104913 53.65100619 90.296875 55.75 C90.92464844 56.11996094 91.55242187 56.48992187 92.19921875 56.87109375 C97.5684784 59.12078355 104.56599311 58.49408861 110.078125 56.9921875 C114.43350596 55.23780149 114.43350596 55.23780149 117.55859375 51.875 C118.39987771 49.45352659 118.34052234 48.01188406 117.921875 45.5 C117.6125 43.64375 117.6125 43.64375 117.296875 41.75 C116.636875 41.75 115.976875 41.75 115.296875 41.75 C115.296875 40.76 115.296875 39.77 115.296875 38.75 C116.9223058 38.89095064 118.54721551 39.03792087 120.171875 39.1875 C121.07679688 39.26871094 121.98171875 39.34992188 122.9140625 39.43359375 C125.296875 39.75 125.296875 39.75 127.296875 40.75 C127.296875 41.41 127.296875 42.07 127.296875 42.75 C127.97234375 42.72679687 128.6478125 42.70359375 129.34375 42.6796875 C130.68179688 42.65261719 130.68179688 42.65261719 132.046875 42.625 C133.36945313 42.59019531 133.36945313 42.59019531 134.71875 42.5546875 C137.4104608 42.75860498 138.99592474 43.38448279 141.296875 44.75 C140.81941468 52.01068968 139.87481717 57.91426361 134.796875 63.5 C131.27817412 66.18300942 127.33135859 67.078131 123.078125 68.07421875 C120.2497734 68.70174486 120.2497734 68.70174486 117.4453125 69.82421875 C113.71564674 70.92090707 110.26646184 70.97185975 106.421875 70.875 C105.73351562 70.86597656 105.04515625 70.85695313 104.3359375 70.84765625 C102.65609662 70.82432513 100.97643754 70.78846326 99.296875 70.75 C99.296875 70.09 99.296875 69.43 99.296875 68.75 C98.183125 68.71261719 97.069375 68.67523438 95.921875 68.63671875 C81.37738407 68.05070052 68.0684797 65.6387529 54.03125 61.71484375 C50.20026172 60.7250382 46.37920472 60.00465348 42.484375 59.3125 C31.69883515 57.20033178 23.23543763 52.40142313 15.296875 44.75 C15.296875 44.09 15.296875 43.43 15.296875 42.75 C14.636875 42.75 13.976875 42.75 13.296875 42.75 C13.296875 42.09 13.296875 41.43 13.296875 40.75 C12.719375 40.646875 12.141875 40.54375 11.546875 40.4375 C8.93501592 39.63943195 7.43593654 38.43532121 5.296875 36.75 C4.4925 36.29625 3.688125 35.8425 2.859375 35.375 C-3.54191239 31.31564702 -6.40146722 26.48330101 -8.390625 19.25 C-9.23164908 12.52180733 -8.99663924 6.94453769 -4.953125 1.3125 C-2.703125 -0.25 -2.703125 -0.25 0 0 Z " fill="#F9F9F9" transform="translate(133.703125,119.25)"/>
<path d="M0 0 C1.30324219 0.71349609 1.30324219 0.71349609 2.6328125 1.44140625 C7.89936098 4.45198546 11.8266493 7.62307122 16 12 C16.99 12.33 17.98 12.66 19 13 C26.40955776 20.04853522 30.13884941 26.68145295 31.60546875 36.7421875 C31.7704544 38.96206656 31.7704544 38.96206656 33 40 C35.39671524 50.22046297 35.13838925 60.29528062 34.75 70.6875 C34.6984547 72.28938178 34.64710479 73.89126985 34.59594727 75.49316406 C34.23284103 86.0578362 33.57538729 96.5382048 32 107 C28.04 107 24.08 107 20 107 C20.01571045 105.20151611 20.01571045 105.20151611 20.03173828 103.36669922 C20.06836009 98.85273306 20.09105151 94.33877959 20.10986328 89.82470703 C20.11982592 87.8832782 20.13340092 85.941864 20.15087891 84.00048828 C20.27375337 69.98557138 19.45908528 56.90686311 16.3671875 43.18359375 C15.95901174 40.75625069 15.93954762 38.4569576 16 36 C15.34 36 14.68 36 14 36 C12.5393715 33.35261084 12 32.10551666 12 29 C11.34 29 10.68 29 10 29 C8.83880775 27.59973876 7.68138155 26.19618669 6.54296875 24.77734375 C3.68813977 21.48886987 0.35472778 18.7623502 -3 16 C-3.65226563 15.45988281 -4.30453125 14.91976562 -4.9765625 14.36328125 C-14.92311588 6.49718226 -25.75910618 3.60162998 -38.3125 3.75 C-39.55797607 3.75906372 -39.55797607 3.75906372 -40.82861328 3.76831055 C-47.37737297 3.87336065 -53.60036251 4.57590484 -60 6 C-61.68609375 6.34417969 -61.68609375 6.34417969 -63.40625 6.6953125 C-69.05113041 7.90311349 -73.90945807 9.21232228 -79 12 C-80.0725 12.28875 -81.145 12.5775 -82.25 12.875 C-91.66823377 15.70047013 -97.79335437 20.28213958 -104.45703125 27.37890625 C-106.84713499 29.84243868 -109.21769594 31.9923952 -112 34 C-112.66 34 -113.32 34 -114 34 C-114.33 34.99 -114.66 35.98 -115 37 C-116.0828125 37.7734375 -116.0828125 37.7734375 -117.1875 38.5625 C-121.65891963 42.43773034 -124.36362446 47.71431314 -126.98828125 52.984375 C-127.875 54.625 -127.875 54.625 -130 57 C-134.99107827 57.63378772 -138.44917322 57.27541339 -143 55 C-141.50865808 47.95001999 -138.87884807 41.59278183 -136 35 C-135.34 35 -134.68 35 -134 35 C-133.773125 33.783125 -133.54625 32.56625 -133.3125 31.3125 C-132.23917281 26.99635449 -130.40322543 24.91705037 -127 22 C-126.278125 21.236875 -125.55625 20.47375 -124.8125 19.6875 C-123 18 -123 18 -121 18 C-120.67 17.01 -120.34 16.02 -120 15 C-119.34 14.67 -118.68 14.34 -118 14 C-117.525625 12.989375 -117.05125 11.97875 -116.5625 10.9375 C-113.5024856 5.38624711 -108.16903254 2.41128357 -103 -1 C-102.2265625 -1.56074219 -101.453125 -2.12148438 -100.65625 -2.69921875 C-73.95492399 -20.85063386 -26.69192041 -14.71040342 0 0 Z " fill="#BEBEBE" transform="translate(305,26)"/>
<path d="M0 0 C3.18294396 0.71968663 6.14974313 1.74842235 9.1875 2.9375 C10.06792969 3.27652344 10.94835937 3.61554688 11.85546875 3.96484375 C14 5 14 5 15 7 C17.1128393 7.61993321 17.1128393 7.61993321 19.625 8 C23.85611131 8.76597705 27.88857133 9.74869562 32 11 C32 11.66 32 12.32 32 13 C32.680625 12.938125 33.36125 12.87625 34.0625 12.8125 C37.09037603 13.00576868 39.05657518 13.87195801 41.7734375 15.140625 C45.69355595 16.65365317 49.81050271 17.39128145 53.9140625 18.25390625 C56.77004924 18.94440431 59.28692506 19.8927125 62 21 C63.59535222 21.41088563 65.19991364 21.78804166 66.8125 22.125 C67.60269531 22.29257813 68.39289063 22.46015625 69.20703125 22.6328125 C69.79871094 22.75398438 70.39039063 22.87515625 71 23 C71 23.66 71 24.32 71 25 C69.86179976 25.91172162 68.68892199 26.78048795 67.5 27.625 C65.41825854 29.35555337 64.19213947 30.40132153 63.359375 32.99609375 C63.14526523 37.04123914 63.68246741 38.61381171 66.3125 41.8125 C67.199375 42.534375 68.08625 43.25625 69 44 C69.7734375 44.86625 69.7734375 44.86625 70.5625 45.75 C75.22434358 49.80377702 83.70712195 48.11665591 89.42578125 47.9140625 C91.79821477 47.78124379 91.79821477 47.78124379 95 47 C96.3762794 45.08235826 96.3762794 45.08235826 97 43 C97.99 42.67 98.98 42.34 100 42 C99.85915204 40.20793453 99.71216299 38.41635083 99.5625 36.625 C99.48128906 35.62726563 99.40007812 34.62953125 99.31640625 33.6015625 C99.15034374 31.02072387 99.15034374 31.02072387 98 29 C110.66970387 29.77904328 110.66970387 29.77904328 116 32 C116.91457003 37.56157448 117.32086397 41.675665 115 47 C114.01 47 113.02 47 112 47 C111.67 47.99 111.34 48.98 111 50 C101.65005823 57.59682769 90.84185063 61.40483975 78.8125 61.3125 C78.07854004 61.30976074 77.34458008 61.30702148 76.58837891 61.30419922 C69.79995312 61.17594883 63.51696224 59.88964252 57 58 C56.22269531 57.78730469 55.44539063 57.57460937 54.64453125 57.35546875 C53.09047444 56.92430329 51.54375272 56.46671594 50 56 C50 55.34 50 54.68 50 54 C49.31292969 53.93941406 48.62585938 53.87882812 47.91796875 53.81640625 C47.01691406 53.73261719 46.11585938 53.64882812 45.1875 53.5625 C44.29417969 53.48128906 43.40085937 53.40007812 42.48046875 53.31640625 C40 53 40 53 37 52 C37 51.34 37 50.68 37 50 C36.46503906 49.86851562 35.93007813 49.73703125 35.37890625 49.6015625 C26.52996711 47.36389973 19.09830722 44.8382052 11.50390625 39.67578125 C7.36639823 36.90668462 3.02142848 34.70514947 -1.6875 33.0625 C-4.7959999 31.63427032 -6.61943275 29.43862987 -9 27 C-10.093125 26.278125 -11.18625 25.55625 -12.3125 24.8125 C-13.199375 24.214375 -14.08625 23.61625 -15 23 C-15 22.34 -15 21.68 -15 21 C-13.68 20.67 -12.36 20.34 -11 20 C-11 19.34 -11 18.68 -11 18 C-10.05125 17.2575 -9.1025 16.515 -8.125 15.75 C-4.954409 13.24493399 -3.92557092 10.97995497 -3 7 C-2.34 7 -1.68 7 -1 7 C-0.67 4.69 -0.34 2.38 0 0 Z " fill="#F8F8F8" transform="translate(284,168)"/>
<path d="M0 0 C1.01642578 -0.00773437 2.03285156 -0.01546875 3.08007812 -0.0234375 C9.97977364 -0.00584745 16.44702302 0.78891154 23.1875 2.25 C23.1875 2.91 23.1875 3.57 23.1875 4.25 C24.363125 4.270625 25.53875 4.29125 26.75 4.3125 C32.21113491 4.88280839 36.78203799 7.17208617 41.60571289 9.63500977 C46.06734256 11.87976905 50.30379729 13.17612504 55.1875 14.25 C55.1875 14.91 55.1875 15.57 55.1875 16.25 C56.05375 16.188125 56.92 16.12625 57.8125 16.0625 C61.1875 16.25 61.1875 16.25 63.91015625 17.6171875 C67.51152619 19.41143379 71.14693128 20.48125836 75 21.5625 C80.71048775 23.2508407 85.3061786 25.1774988 90.109375 28.7890625 C92.41359553 30.40894686 94.74271536 31.47859907 97.3125 32.625 C102.55084556 35.12139905 105.74409521 38.65499295 109.1875 43.25 C105.78306482 44.39791579 103.68252236 44.08267878 100.25 43.125 C96.38217486 42.08330313 92.51912886 41.08430468 88.609375 40.21484375 C77.52025114 37.72869705 66.77498968 34.62162946 55.97998047 31.06958008 C48.7763852 28.71205012 41.64150907 26.67263394 34.1875 25.25 C34.1875 24.59 34.1875 23.93 34.1875 23.25 C33.3521875 23.14558594 32.516875 23.04117188 31.65625 22.93359375 C27.77850471 22.16939845 24.31102444 20.83877242 20.6875 19.3125 C16.23315065 17.46327012 11.78507458 15.71866966 7.1875 14.25 C7.1875 13.59 7.1875 12.93 7.1875 12.25 C6.51203125 12.11722656 5.8365625 11.98445313 5.140625 11.84765625 C4.24859375 11.67105469 3.3565625 11.49445313 2.4375 11.3125 C1.55578125 11.13847656 0.6740625 10.96445313 -0.234375 10.78515625 C-2.44485053 10.32631512 -4.62762068 9.81663926 -6.8125 9.25 C-6.8125 8.59 -6.8125 7.93 -6.8125 7.25 C-7.49957031 7.14042969 -8.18664062 7.03085938 -8.89453125 6.91796875 C-9.79558594 6.75941406 -10.69664062 6.60085937 -11.625 6.4375 C-12.51832031 6.28667969 -13.41164062 6.13585937 -14.33203125 5.98046875 C-16.99571256 5.19604607 -18.06940322 4.36372201 -19.8125 2.25 C-13.11868848 0.22983173 -6.96795799 -0.05242351 0 0 Z " fill="#7C7C7C" transform="translate(163.8125,110.75)"/>
<path d="M0 0 C0 0.66 0 1.32 0 2 C1.918125 2.1546875 1.918125 2.1546875 3.875 2.3125 C16.99200026 3.88083699 29.15958616 10.17174301 39 19 C39 19.66 39 20.32 39 21 C39.53625 21.226875 40.0725 21.45375 40.625 21.6875 C43.80315626 23.44384951 46.28079069 25.58979175 49 28 C49 28.33 49 28.66 49 29 C36.17165844 28.35003069 24.46349872 26.1666668 12.0390625 23.0078125 C7.43408733 21.84507269 2.80177741 20.81438245 -1.83984375 19.80859375 C-5.13780238 18.96474031 -8.3143455 17.91989923 -11.53491211 16.82299805 C-14.10106951 15.96625678 -16.68023492 15.17060387 -19.26953125 14.38671875 C-40.33998729 7.95828478 -40.33998729 7.95828478 -48 3 C-48.33 2.34 -48.66 1.68 -49 1 C-33.27592215 -3.53579169 -15.95690255 -3.06022789 0 0 Z " fill="#7D7D7D" transform="translate(341,160)"/>
<path d="M0 0 C1.216875 -0.04125 2.43375 -0.0825 3.6875 -0.125 C4.71423828 -0.15980469 4.71423828 -0.15980469 5.76171875 -0.1953125 C8 0 8 0 13 2 C12.67 5.96 12.34 9.92 12 14 C7.71 14 3.42 14 -1 14 C-0.67 9.38 -0.34 4.76 0 0 Z " fill="#B7B7B7" transform="translate(158,89)"/>
<path d="M0 0 C3.63 0 7.26 0 11 0 C10.67 3.3 10.34 6.6 10 10 C6.04 10 2.08 10 -2 10 C-1.34 6.7 -0.68 3.4 0 0 Z " fill="#B9B9B9" transform="translate(324,141)"/>
<path d="M0 0 C1.62580966 0.11398665 3.25067157 0.24155659 4.875 0.375 C5.77992188 0.44460937 6.68484375 0.51421875 7.6171875 0.5859375 C10 1 10 1 12 3 C9.03 2.67 6.06 2.34 3 2 C3.33 3.98 3.66 5.96 4 8 C2 5 2 5 2 3 C1.34 3 0.68 3 0 3 C0 2.01 0 1.02 0 0 Z " fill="#9B9B9B" transform="translate(249,158)"/>
<path d="M0 0 C-1.08196054 2.5245746 -2.00633756 4.00576142 -4.0625 5.875 C-6.4790362 8.52539454 -6.68060224 10.48662462 -7 14 C-7.33 14 -7.66 14 -8 14 C-8.71800554 7.05927978 -8.71800554 7.05927978 -6.734375 4.1328125 C-2.66088517 0 -2.66088517 0 0 0 Z " fill="#464646" transform="translate(355,193)"/>
<path d="M0 0 C0.33 0 0.66 0 1 0 C1 1.98 1 3.96 1 6 C-2.96 6 -6.92 6 -11 6 C-10.67 5.01 -10.34 4.02 -10 3 C-6.7 3.66 -3.4 4.32 0 5 C0 3.35 0 1.7 0 0 Z " fill="#858585" transform="translate(333,145)"/>
<path d="M0 0 C0.66 0 1.32 0 2 0 C1.67 1.65 1.34 3.3 1 5 C0.01 5.33 -0.98 5.66 -2 6 C-1.125 1.125 -1.125 1.125 0 0 Z " fill="#000000" transform="translate(311,125)"/>
<path d="M0 0 C-1.485 1.485 -1.485 1.485 -3 3 C-2.67 3.66 -2.34 4.32 -2 5 C-6.875 3.25 -6.875 3.25 -8 1 C-5.07175348 0.02391783 -3.04386724 -0.08226668 0 0 Z " fill="#5A5A5A" transform="translate(300,160)"/>
<path d="" fill="#000000" transform="translate(0,0)"/>
<path d="" fill="#000000" transform="translate(0,0)"/>
</svg>
